<svg xmlns="http://www.w3.org/2000/svg" viewBox="0 0 96.08 69.89"><defs><style>.cls-1{isolation:isolate;}.cls-2{font-size:10.7px;fill:#1d1d1b;font-family:Futurism-Light, Futurism;font-weight:300;}.cls-3{fill:#f8a921;}.cls-4{fill:#fff;}.cls-5{fill:#a19b7d;}.cls-6{fill:#0f0f0f;}.cls-7{fill:#4b5471;}.cls-8{fill:#25283f;}.cls-14,.cls-9{fill:#06080b;}.cls-10{fill:#49529c;}.cls-11{fill:#c51718;}.cls-12{fill:#b7cecd;}.cls-13{fill:#e4f3f8;}.cls-14{mix-blend-mode:multiply;}.cls-15{fill:#cac49a;}.cls-16,.cls-19{fill:#e2d89b;}.cls-17{fill:#5b6ab0;}.cls-18{fill:#303535;}.cls-19{opacity:0.48;mix-blend-mode:screen;}</style></defs><title>sneaker</title><g class="cls-1"><g id="Calque_1" data-name="Calque 1"><text class="cls-2" transform="translate(8.5 46.98)">HEAVENS SHOES</text><path class="cls-3" d="M104,91.55a5.72,5.72,0,0,1,2.75,2l0,0h0l9.46,10.8,0,0,.06.05A43.8,43.8,0,0,0,126.84,110h0a1.58,1.58,0,0,1,.88.87,4,4,0,0,1-.31,3c-.55.6-5.4,5.34-18,1l-27.94-9.54s-2.92-1-3.38-3c-.25-1.08.31-2.33,1.67-3.71l.12-.12.05-.15c0-.08,2.53-7.64,6.83-10.34l0,0,0,0a2.28,2.28,0,0,1,1.78-.52c.79.27,1.26,1.74,1.3,4v.07a2.46,2.46,0,0,0,1.7,1.92c1.29.45,3.16.1,5.53-1l0,0h0s3.59-2,6.77-1m.23-.68c-3.53-1.2-7.36,1-7.36,1-2.6,1.24-4.12,1.31-5,1a1.74,1.74,0,0,1-1.22-1.34c-.06-3.22-.88-4.39-1.78-4.7a3,3,0,0,0-2.45.63c-4.56,2.86-7.12,10.72-7.12,10.72-5.3,5.36,2,7.84,2,7.84l27.94,9.54c14,4.79,18.86-1.32,18.86-1.32,1.7-4-.81-4.88-.94-4.93h0a43.23,43.23,0,0,1-10.35-5.39l-9.46-10.79a6.53,6.53,0,0,0-3.09-2.28Z" transform="translate(-56.08 -82.18)"/><path class="cls-4" d="M119.71,114.62a14.1,14.1,0,0,0-6.7-2c-5.39,0-9.71-3.75-9.71-3.75-3.71-4.18-11.13-5.09-11.13-5.09-9-1.94-12.91-5.55-12.91-5.55-5.3,5.36,2,7.84,2,7.84l27.94,9.54c14,4.79,18.86-1.32,18.86-1.32.14-.33.24-.63.33-.91C123.06,116.37,119.71,114.62,119.71,114.62Z" transform="translate(-56.08 -82.18)"/><path class="cls-3" d="M125.49,116.08a4.58,4.58,0,0,0-3.3,0,2.21,2.21,0,0,1-2,.15,3.63,3.63,0,0,0-3.17-.6,2.68,2.68,0,0,1-2.88-.34c-1.46-2.12-4.41-1.76-4.41-1.76a6.59,6.59,0,0,1-5.18-2c-4.93-6-12.47-4.84-12.47-4.84a6.14,6.14,0,0,1-5.32-1,17.35,17.35,0,0,0-9.33-4.59c-.72,3.3,3.83,4.85,3.83,4.85l27.94,9.54C117.65,118.48,122.76,117.39,125.49,116.08Z" transform="translate(-56.08 -82.18)"/><path class="cls-3" d="M97.9,91.66c-.38-6.06,4.84-6.86,4.89-6.87l.26,0,4,8.17-.89-.08-3.57-7.3c-1,.22-4.33,1.35-4,6.07Z" transform="translate(-56.08 -82.18)"/><polygon class="cls-3" points="62.28 35.22 34.45 35.22 62.28 33.68 62.28 35.22"/><polygon class="cls-3" points="53.61 33.08 25.79 33.08 53.61 31.54 53.61 33.08"/><polygon class="cls-3" points="25.79 22.49 9.03 22.49 25.79 20.95 25.79 22.49"/><polygon class="cls-4" points="48.37 29.29 20.54 29.29 48.37 27.75 48.37 29.29"/><polygon class="cls-4" points="42.24 24.8 14.42 24.8 42.24 23.26 42.24 24.8"/><polygon class="cls-5" points="54.71 10.46 55.37 10.49 55.94 11.28 55.32 11.13 54.71 10.46"/><path class="cls-6" d="M97.21,90.74a11.63,11.63,0,0,1,.92-2.86,6.64,6.64,0,0,1,.33-.71,3.81,3.81,0,0,1,5.29-1.5,7.47,7.47,0,0,1,1.59,1.18l11.15,11.56Z" transform="translate(-56.08 -82.18)"/><path class="cls-7" d="M131.28,112c-.24.73-1.73,1.85-3.1,3s-2.77,2.56-3.52,2.67a8.59,8.59,0,0,1-2,.17l.23-.73-1.17-.16-.37.47-2.13-.29-.14-.6-1-.11-.08.4-2.18-.33-.25-.56-1-.31-.38.68-2.36-.76,0-.67-1.1-.36-.35.58-2.36-.75-.06-.5-1-.28-.17.37-2.6-.83.06-.51-1.23-.34-.17.55-2.42-.77.13-.57-1.18-.38-.24.67L96.79,111l.16-.69-1.1-.3-.2.62L93.19,110l.18-.71-1.1-.38-.23.72-2.49-.9.22-.68-.86-.27-.27.5-2-.57v-.79l-.82-.19s-.25.29-1.63-.15a3.61,3.61,0,0,0-2.15-.16l-.73-.23s-.48-.79-.62-1.05a3.72,3.72,0,0,0-1.91-.75,6.66,6.66,0,0,1-1.08.3l-1-.41s-.22-1.53-.59-1.78,1-2.69,2-4.45c.1-.18,0-1,.06-1.11A4.73,4.73,0,0,1,79,95.37s1.56-8.17,3.59-8.69c0,0,2-3.58,3.7-4.33h0a1.25,1.25,0,0,1,.6-.14c1.73.08,1.13,4.3,2.29,5.63s6.81,2.34,9.64,1.65l.36-.09c2.15-.5,4.17-.84,4.9-1h0l.29,0L116,97.9l1.3.42a52.2,52.2,0,0,0,5.3,5.34c.27.22.53.41.78.58a7.61,7.61,0,0,0,.67.41c1.65.83,4.18,1.71,5.7,2.51a3,3,0,0,1,1.23.93,5,5,0,0,1,.35,3.7C131.31,111.85,131.3,111.91,131.28,112Z" transform="translate(-56.08 -82.18)"/><path class="cls-8" d="M90.38,104.59l5.06,1.84s-1.81-7.28-3.34-11.29c-1.39-3.61-8-7.6-9.26-8.34l-.21-.12c-2,.52-3.59,8.69-3.59,8.69a4.61,4.61,0,0,0-1,3.21C78.05,98.75,90.38,104.59,90.38,104.59Z" transform="translate(-56.08 -82.18)"/><path class="cls-9" d="M78.06,100.11l12.32,4.48c-.22-1.35-.49-2.79-.85-4.23-.88-3.59-4.41-9.79-6.69-13.56l-.21-.12c-2,.52-3.59,8.69-3.59,8.69Z" transform="translate(-56.08 -82.18)"/><path class="cls-10" d="M131,108.09s-2.73,5.51-4.42,5.82-13.77-2.18-13.77-2.18.27-1,.69-2.12a5.59,5.59,0,0,1,1.64-2.67,37.49,37.49,0,0,1,4.65-1.23h0c.42-.1.81-.21,1.15-.32a2.86,2.86,0,0,0,1.08-.5,2.73,2.73,0,0,0,.6-1.23c.27.22.53.41.78.58a7.61,7.61,0,0,0,.67.41C126.39,105.82,130.47,107.1,131,108.09Z" transform="translate(-56.08 -82.18)"/><path class="cls-8" d="M101.62,109.9l9.21,2.95a17.47,17.47,0,0,1,2.65-3.24,16.09,16.09,0,0,1,6.29-3.9h0c.36-.12.74-.22,1.14-.32s.68-.14,1-.19a1.59,1.59,0,0,0,1.42-1h0c-.25-.17-.51-.36-.78-.58a52.2,52.2,0,0,1-5.3-5.34L116,97.9l-11.58-9.5-.29,0h0l-1.35.23c-1,.17-2.23.41-3.55.72,5,3.41,17.07,11.87,17.1,13,0,1.39-7.6,3.31-10.08,3.9S101.62,109.9,101.62,109.9Z" transform="translate(-56.08 -82.18)"/><path class="cls-11" d="M102.77,88.68l12.57,9.79,1.59.25a48.1,48.1,0,0,0,4.38,4.61,6.65,6.65,0,0,0,2.07.92h0c-.25-.17-.51-.36-.78-.58a52.2,52.2,0,0,1-5.3-5.34L116,97.9l-11.58-9.5-.29,0h0Z" transform="translate(-56.08 -82.18)"/><path class="cls-8" d="M99.59,109.25l23.23,5.69,5.41.21c1.37-1.19,2.81-2.46,3.05-3.19a5.45,5.45,0,0,0,.25-1.45,5.06,5.06,0,0,0-.55-2.42,3,3,0,0,0-1.23-.93c-.44,1.34-2.27,1.72-6,1.12S111.6,106,107.23,106a12.33,12.33,0,0,0-7.35,3A3.63,3.63,0,0,0,99.59,109.25Z" transform="translate(-56.08 -82.18)"/><path class="cls-9" d="M99.59,109.25l23.23,5.69,5.51.2c1.37-1.19,2.71-2.45,2.95-3.18a5.45,5.45,0,0,0,.25-1.45c-4.55.8-12.25,1.79-17.9.55-7.5-1.65-9.39-2.34-13.75-2.06A3.63,3.63,0,0,0,99.59,109.25Z" transform="translate(-56.08 -82.18)"/><path class="cls-8" d="M112.75,99.1a12.6,12.6,0,0,0-6.49,3,54.48,54.48,0,0,0-6.92,8L88.7,105.76s8-2.29,10.34-5.54,3.88-5.49,8.36-5.59S112.75,99.1,112.75,99.1Z" transform="translate(-56.08 -82.18)"/><path class="cls-12" d="M131.28,112a8.31,8.31,0,0,1-2,2.5c-.26.25-.72.35-1,.59-1.44,1.25-2.84,2.5-3.59,2.61a8.59,8.59,0,0,1-2,.17l.23-.73-1.17-.16-.37.47-2.13-.29-.14-.6-1-.11-.08.4-2.18-.33-.25-.56-1-.31-.38.68-2.36-.76,0-.67-1.1-.36-.35.58-2.36-.75-.06-.5-1-.28-.17.37-2.6-.83.06-.51-1.23-.34-.17.55-2.42-.77.13-.57-1.18-.38-.24.67L96.79,111l.16-.69-1.1-.3-.2.62L93.19,110l.18-.71-1.1-.38-.23.72-2.49-.9.22-.68-.86-.27-.27.5-2-.57v-.79l-.82-.19s-.25.29-1.63-.15a3.61,3.61,0,0,0-2.15-.16l-.73-.23s-.48-.79-.62-1.05a3.72,3.72,0,0,0-1.91-.75,6.66,6.66,0,0,1-1.08.3l-1-.41a4.33,4.33,0,0,0-.82-1.35c-.31-.21.32-3.23,1.18-5.07a3.45,3.45,0,0,1,.22-.43,4.18,4.18,0,0,1,.31-.49C78.68,95.42,79,95.37,79,95.37s-1,1,1,2.66,13.88,4.44,21.26,9.45,24.69,6.61,28.13,5.45a7,7,0,0,0,1.91-1.14C131.31,111.85,131.3,111.91,131.28,112Z" transform="translate(-56.08 -82.18)"/><path class="cls-13" d="M75.86,102.89a4.33,4.33,0,0,1,.82,1.35l1,.41a7.54,7.54,0,0,0,1.08-.29,3.62,3.62,0,0,1,1.91.74c.11.21.47.8.59,1l0,.06.29.1.44.13a3.61,3.61,0,0,1,2.15.16c1.38.44,1.63.15,1.63.15l.82.19v.79l2,.57.27-.5.86.27-.22.68,2.49.9.23-.72,1.1.38-.18.71,2.46.63.2-.62,1.1.3-.16.69,2.43.78.24-.67,1.18.38-.13.57,2.42.77.17-.55,1.23.34-.06.51,2.6.84.17-.37,1,.27.06.5,2.36.75.35-.58,1.1.36,0,.67,2.36.76.38-.68,1,.31.25.56,2.18.33.08-.4,1,.11.13.6,2.13.29.37-.47,1.17.17-.23.72a8.59,8.59,0,0,0,2-.17,9.81,9.81,0,0,0,3.28-2l.5-.42c.28-.24.56-.49.81-.74a9.87,9.87,0,0,0-1.07.14c-7.1,1.24-21.5-3.61-38-10.12-8-3.17-11.59-5.31-13.14-6.66A12.72,12.72,0,0,0,76.56,99C76,100.75,75.61,102.72,75.86,102.89Z" transform="translate(-56.08 -82.18)"/><path class="cls-14" d="M105.4,92.64A.48.48,0,0,0,106,93a.5.5,0,0,0,.34-.62.51.51,0,0,0-.63-.33A.5.5,0,0,0,105.4,92.64Z" transform="translate(-56.08 -82.18)"/><path class="cls-15" d="M105.6,92.15a.53.53,0,0,0,.26.82l.51.17c.77.25,3.92-1.16,4.07-1l-1.3-1.35a6.09,6.09,0,0,0-2.29.41A4,4,0,0,0,105.6,92.15Z" transform="translate(-56.08 -82.18)"/><path class="cls-14" d="M103.57,90.79a.5.5,0,1,0,.33-.63A.51.51,0,0,0,103.57,90.79Z" transform="translate(-56.08 -82.18)"/><path class="cls-15" d="M107.52,88.78a5.54,5.54,0,0,0-2.58.5c-1.16.6-1.4,1.71-1,1.86s3.61-1.29,4.07-1.15a1.85,1.85,0,0,1,.7.41S108.42,89.07,107.52,88.78Z" transform="translate(-56.08 -82.18)"/><path class="cls-14" d="M108.92,95a.49.49,0,0,0,.62.33.5.5,0,0,0,.34-.62.51.51,0,0,0-.63-.33A.5.5,0,0,0,108.92,95Z" transform="translate(-56.08 -82.18)"/><path class="cls-16" d="M109.14,90.79s.6,0,1.3,1.35-.58,3.28-1.15,3.09-.56-.92-.5-1.77S109.14,90.79,109.14,90.79Z" transform="translate(-56.08 -82.18)"/><path class="cls-14" d="M111.79,97.12a.5.5,0,0,0,1-.29.5.5,0,0,0-1,.29Z" transform="translate(-56.08 -82.18)"/><path class="cls-16" d="M111.45,92.68s-.32,3.12.22,4,1.1.49,1.35-.28a5.25,5.25,0,0,0,0-2.05S112,92.7,111.45,92.68Z" transform="translate(-56.08 -82.18)"/><path class="cls-14" d="M114.26,99.05a.49.49,0,0,0,.62.33.5.5,0,0,0,.34-.62.51.51,0,0,0-.63-.33A.5.5,0,0,0,114.26,99.05Z" transform="translate(-56.08 -82.18)"/><path class="cls-16" d="M113.53,95.34a3.32,3.32,0,0,1,1.62.9c.18.24.42,2.78-.11,3.05S113.53,95.34,113.53,95.34Z" transform="translate(-56.08 -82.18)"/><path class="cls-14" d="M119.47,103.52a.5.5,0,1,0,.33-.62A.5.5,0,0,0,119.47,103.52Z" transform="translate(-56.08 -82.18)"/><path class="cls-16" d="M120.11,101.14c0,.18.45,2-.12,2.29-.81.42-1.4-3.67-1.4-3.67S120,100.48,120.11,101.14Z" transform="translate(-56.08 -82.18)"/><path class="cls-10" d="M104.12,88.45c-.15,0-10,3.29-14,1.7s-3.82-3.78-3.26-5.52-.53-2.28-.53-2.28a1.25,1.25,0,0,1,.6-.14c1.73.08,1.13,4.3,2.29,5.63s6.81,2.34,9.64,1.65C101.13,88.94,103.35,88.57,104.12,88.45Z" transform="translate(-56.08 -82.18)"/><path class="cls-10" d="M104.12,88.45c-.15,0-10,3.29-14,1.7s-3.82-3.78-3.26-5.52-.53-2.28-.53-2.28a1.25,1.25,0,0,1,.6-.14c1.73.08,1.13,4.3,2.29,5.63s6.81,2.34,9.64,1.65C101.13,88.94,103.35,88.57,104.12,88.45Z" transform="translate(-56.08 -82.18)"/><path class="cls-17" d="M86.33,82.35c2.41-1,1.48,4,2.79,5.57,1.12,1.3,5,1.84,6.72,1.92,2.83.11,2.65-.32,8.28-1.39-5.11.61-5.14,1.26-8.26,1.1a15.94,15.94,0,0,1-6-1.4c-.5-.3-.78-.56-1.07-1.61C88.31,84.78,88.27,81.41,86.33,82.35Z" transform="translate(-56.08 -82.18)"/><path class="cls-12" d="M75.86,102.89a4.33,4.33,0,0,1,.82,1.35l1,.41a7.54,7.54,0,0,0,1.08-.29,3.62,3.62,0,0,1,1.91.74c.11.21.47.8.59,1a3.18,3.18,0,0,1,.32.16l.44.13a3.61,3.61,0,0,1,2.15.16c1.38.44,1.63.15,1.63.15l.82.19v.79l2,.57.27-.5.86.27-.22.68,2.49.9.23-.72,1.1.38-.18.71,2.46.63.2-.62,1.1.3-.16.69,2.43.78.24-.67,1.18.38-.13.57,2.42.77.17-.55,1.23.34-.06.51,2.6.84.17-.37,1,.27.06.5,2.36.75.35-.58,1.1.36,0,.67,2.36.76.38-.68,1,.31.25.56,2.18.33.08-.4,1,.11.13.6,2.13.29.37-.47,1.17.17-.23.72a8.59,8.59,0,0,0,2-.17,9.81,9.81,0,0,0,3.28-2c-8.09,0-22.8-4.59-22.8-4.59s-15.16-5.2-22.72-8.85A59,59,0,0,1,76.56,99c0,.13-.09.26-.13.39-.14.43-.26.86-.35,1.26C75.8,101.82,75.69,102.78,75.86,102.89Z" transform="translate(-56.08 -82.18)"/><path class="cls-18" d="M76.69,104.23l1,.39a5.21,5.21,0,0,0,1.11-.31,3.76,3.76,0,0,1,1.92.75s.58,1,.59,1l.72.27a3.53,3.53,0,0,1,1.93.08,3,3,0,0,0,1.87.21l.9.2s0,.84,0,.79l1.86.51.27-.51,1,.31.12,0s-.22.7-.21.68l2.24.81.23-.72,1.24.42.11,0s-.17.73-.17.7l2.2.56s.21-.67.2-.63l1.37.37s-.18.74-.17.7l2.17.69s.25-.71.24-.67l1.45.47c0,.07-.13.59-.13.57l2.14.69c.07-.2.19-.57.18-.55l1.47.41c0,.13-.06.54-.06.52l2.38.77.17-.36,1.22.33s.06.52.06.5l2.18.71.35-.58,1.29.42s-.07.7-.06.68l2.2.72s.4-.72.38-.68l1.07.35s.25.59.24.56l2.07.32s.08-.41.08-.39l1.12.14s.13.61.13.6l2.08.3.37-.46,1.19.18c-.55,1.63,0,0,0,0l-1.15-.14-.36.47-2.19-.27-.14-.6-.93-.09s-.08.42-.07.4l-2.3-.32s-.27-.6-.25-.57l-.86-.27-.37.69-2.53-.8c0-.26.06-.69,0-.67l-.93-.29-.34.58-2.54-.8s-.06-.51-.06-.49l-.83-.23s-.19.4-.17.38l-2.83-.9s.06-.53,0-.51l-1-.27L103,113l-2.68-.85c0-.07.13-.59.13-.57l-.91-.29s-.26.71-.24.67l-2.71-.88s.18-.72.17-.68l-.83-.23s-.22.67-.2.63L93,110.06s.19-.75.18-.72l-.86-.3s-.24.76-.23.73l-2.73-1s.23-.7.22-.68l-.64-.21-.27.5-2.19-.63s0-.85,0-.8l-.7-.15c-.42.25-1.49-.12-1.92-.25a3.29,3.29,0,0,0-1.88-.09l-.79-.31h0a10.47,10.47,0,0,0-.63-1.06,4.57,4.57,0,0,0-1.59-.69c-.33,0,0,0-1.31.29l-1-.43a7.08,7.08,0,0,0-.56-1.09A6.14,6.14,0,0,1,76.69,104.23Z" transform="translate(-56.08 -82.18)"/><path class="cls-11" d="M76.08,100.68c2.79,1.87,8.38,4.28,8.76,4.17s.68-.37.33-.82-3-1.46-6.6-3.39c-1-.51-1.65-.91-2.14-1.22C76.29,99.85,76.17,100.28,76.08,100.68Z" transform="translate(-56.08 -82.18)"/><path class="cls-5" d="M116,97.9l1.2.87.37-.25-.35-.35A2.14,2.14,0,0,0,116,97.9Z" transform="translate(-56.08 -82.18)"/><path class="cls-14" d="M116.24,100.73a.5.5,0,1,0,.33-.63A.51.51,0,0,0,116.24,100.73Z" transform="translate(-56.08 -82.18)"/><path class="cls-16" d="M117.22,98.17a12.44,12.44,0,0,0-.54,2.3c0,.67,1.69,0,1.91-.71S117.22,98.17,117.22,98.17Z" transform="translate(-56.08 -82.18)"/><path class="cls-19" d="M112,93.47l.77,1.06s.16,2.09-.32,2S112,93.47,112,93.47Z" transform="translate(-56.08 -82.18)"/><path class="cls-19" d="M109.48,91.4l.83,1s-.19,2.65-.68,2.39S109.48,91.4,109.48,91.4Z" transform="translate(-56.08 -82.18)"/><path class="cls-19" d="M114.07,95.9l.72.26s.5,2.57.14,2.2A10.71,10.71,0,0,1,114.07,95.9Z" transform="translate(-56.08 -82.18)"/><path class="cls-19" d="M117.7,98.62l.6.94s-.63,1.17-.93.57S117.7,98.62,117.7,98.62Z" transform="translate(-56.08 -82.18)"/></g></g></svg>